<svg width="19" height="19" viewBox="0 0 19 19" fill="none" xmlns="http://www.w3.org/2000/svg">
<path d="M5.09206 5.0856C6.39026 4.24201 7.89453 3.61523 9.50007 3.61523C13.1485 3.61523 16.274 6.85181 17.647 8.51424C17.8638 8.78457 17.9839 9.13577 17.9839 9.49993C17.9839 9.86408 17.8638 10.2153 17.647 10.4856C16.8901 11.402 15.6008 12.7966 13.985 13.8639M11.4616 15.0833C10.8308 15.2741 10.1744 15.3846 9.50007 15.3846C5.85161 15.3846 2.72623 12.148 1.35315 10.4856C1.13628 10.2153 1.01624 9.86408 1.01624 9.49993C1.01624 9.13577 1.13628 8.78457 1.35315 8.51424C1.78818 7.98753 2.39911 7.30281 3.14685 6.61308" stroke="#1D70B8" stroke-width="2" stroke-linecap="round" stroke-linejoin="round"/>
<path d="M11.3495 11.3495C12.3708 10.3281 12.3708 8.67216 11.3495 7.65079C10.3281 6.62943 8.67213 6.62943 7.65076 7.65079" stroke="#1D70B8" stroke-width="2" stroke-linecap="round" stroke-linejoin="round"/>
<path d="M18 18L1 1" stroke="#1D70B8" stroke-width="2" stroke-linecap="round" stroke-linejoin="round"/>
</svg>
