<svg width="19" height="14" viewBox="0 0 19 14" fill="none" xmlns="http://www.w3.org/2000/svg">
<path d="M17.6625 5.99501C17.8797 6.27063 18 6.62872 18 7.00001C18 7.3713 17.8797 7.72939 17.6625 8.00502C16.2868 9.70002 13.1554 13 9.50001 13C5.84459 13 2.71325 9.70002 1.33755 8.00502C1.12027 7.72939 1 7.3713 1 7.00001C1 6.62872 1.12027 6.27063 1.33755 5.99501C2.71325 4.3 5.84459 1 9.50001 1C13.1554 1 16.2868 4.3 17.6625 5.99501Z" stroke="#1D70B8" stroke-width="2" stroke-linecap="round" stroke-linejoin="round"/>
<path d="M9.50025 9.66677C10.9474 9.66677 12.1206 8.47288 12.1206 7.00013C12.1206 5.52739 10.9474 4.3335 9.50025 4.3335C8.05306 4.3335 6.87988 5.52739 6.87988 7.00013C6.87988 8.47288 8.05306 9.66677 9.50025 9.66677Z" stroke="#1D70B8" stroke-width="2" stroke-linecap="round" stroke-linejoin="round"/>
</svg>
